# xmcd
#
# Track frame offsets:
#	150
#	11400
#	20933
#	32176
#	44866
#	56559
#	69009
#	80229
#	91697
#	103592
#	113852
#	126040
#
# Disc length: 1819 seconds
#
# Revision: 1
# Processed by: cddbd v1.5.2PL0 Copyright (c) Steve Scherf et al.
# Submitted via: audiograbber 1.83.01
#
DISCID=9e07190c
DTITLE=Hank Thompson - Breakin' In Another Heart
DYEAR=1965
DGENRE=Country
TTITLE0=Paper Doll
TTITLE1=That's All There Is To That
TTITLE2=There's No You
TTITLE3=You Always Hurt The One You Love
TTITLE4=Till Then
TTITLE5=Setember In Rain
TTITLE6=It's Better To Have Loved A Little (Then Never To Have Loved At All)
TTITLE7=Just An Old Flame
TTITLE8=How Do You Hold A Memory
TTITLE9=I'd Have Never Found Somebody New
TTITLE10=Don't Take It Out On Me
TTITLE11=Breakin' In Another Heart
EXTD=
EXTT0=
EXTT1=
EXTT2=
EXTT3=
EXTT4=
EXTT5=
EXTT6=
EXTT7=
EXTT8=
EXTT9=
EXTT10=
EXTT11=
PLAYORDER=
